<?xml version="1.0" encoding="UTF-8" standalone="no"?>
<svg
   xmlns="http://www.w3.org/2000/svg"
   version="1.1"
   x="0px"
   y="0px"
   width="244.43375"
   height="281.362"
   viewBox="0 0 244.43375 281.36199"
   enable-background="new 0 0 419.53 595.28"
   xml:space="preserve">
 <path
   d="m 101.865,111.448 c -6.591,7.163 -10.812,17.246 -12.662,30.246 l -8.978,63.077 c -1.85,13.002 -0.498,23.082 4.054,30.245 1.742,2.655 4.558,5.242 8.446,7.761 3.885,2.521 9.343,3.78 16.376,3.78 7.163,0 13.013,-1.259 17.551,-3.78 4.537,-2.519 8.055,-5.106 10.556,-7.761 6.592,-7.163 10.812,-17.243 12.661,-30.245 l 8.978,-63.077 c 1.85,-13 0.5,-23.083 -4.053,-30.246 -1.746,-2.652 -4.527,-5.239 -8.347,-7.76 -3.82,-2.519 -9.312,-3.781 -16.475,-3.781 -3.582,0 -6.818,0.367 -9.708,1.095 -2.889,0.73 -5.509,1.66 -7.858,2.786 -2.349,1.128 -4.383,2.357 -6.095,3.681 -1.716,1.327 -3.198,2.654 -4.446,3.979 z m 9.616,17.013 c 1.57,-3.116 3.318,-5.373 5.242,-6.766 1.92,-1.393 3.798,-2.22 5.627,-2.487 1.828,-0.264 3.47,-0.398 4.932,-0.398 1.324,0 2.896,0.134 4.719,0.398 1.817,0.267 3.49,1.094 5.018,2.487 1.525,1.393 2.631,3.65 3.316,6.766 0.682,3.118 0.619,7.53 -0.192,13.232 l -8.978,63.077 c -0.83,5.839 -2.033,10.316 -3.603,13.431 -1.572,3.118 -3.32,5.373 -5.241,6.766 -1.924,1.393 -3.833,2.223 -5.726,2.487 -1.897,0.268 -3.509,0.398 -4.833,0.398 -1.461,0 -3.065,-0.13 -4.817,-0.398 -1.754,-0.264 -3.396,-1.094 -4.92,-2.487 -1.527,-1.393 -2.633,-3.647 -3.315,-6.766 -0.686,-3.115 -0.611,-7.592 0.22,-13.431 l 8.978,-63.077 c 0.81,-5.702 2.001,-10.114 3.573,-13.232 z m 132.187,-17.488 c -1.907,13.4 -6.338,23.549 -13.288,30.444 -7.425,7.431 -17.439,11.144 -30.041,11.144 l 2.691,-18.903 c 5.173,0 8.772,-0.597 10.801,-1.791 2.027,-1.195 3.352,-2.121 3.978,-2.787 3.351,-3.05 5.671,-9.083 6.955,-18.107 0.68,-4.777 0.829,-8.621 0.447,-11.541 -0.379,-2.917 -1.222,-5.174 -2.519,-6.766 -1.3,-1.591 -3.072,-2.652 -5.316,-3.183 -2.248,-0.53 -4.896,-0.797 -7.946,-0.797 h -11.739 l -6.399,44.971 -2.691,18.903 -9.091,63.873 h -0.005 c -4.369,35.808 -37.112,64.929 -73.021,64.929 -17.797,0 -33.776,-6.97 -44.994,-19.627 -10.786,-12.17 -15.851,-28.106 -14.423,-45.102 h -0.105 l 0.345,-2.489 c 10e-4,-0.006 10e-4,-0.012 0.002,-0.019 h 0.001 l 4.457,-32.148 H 23.512 l -4.805,34.656 H 0 L 20.871,69.981 H 39.576 L 26.199,163.074 H 54.454 L 73.01,34.121 57.686,32.96 85.178,0 107.39,36.726 91.717,35.538 65.864,216.634 h -0.037 c -1.44,12.453 1.976,24.062 9.643,32.713 7.622,8.601 18.637,13.337 31.014,13.337 26.802,0 51.244,-21.783 54.485,-48.558 l 0.161,0.02 20.546,-144.362 h 30.444 c 12.468,0 21.434,3.65 26.896,10.944 4.968,7.032 6.521,17.112 4.652,30.245 z"
   style="fill:#1d1d1b" />
</svg>